<?xml version="1.0" standalone="no"?>
<!DOCTYPE svg PUBLIC "-//W3C//DTD SVG 20010904//EN"
 "http://www.w3.org/TR/2001/REC-SVG-20010904/DTD/svg10.dtd">
<svg version="1.0" xmlns="http://www.w3.org/2000/svg"
 width="600.000000pt" height="600.000000pt" viewBox="0 0 600.000000 600.000000"
 preserveAspectRatio="xMidYMid meet">
<metadata>
Created by potrace 1.14, written by Peter Selinger 2001-2017
</metadata>
<g transform="translate(0.000000,600.000000) scale(0.100000,-0.100000)"
fill="#000000" stroke="none">
<path d="M4326 5208 l-789 -789 -44 43 -44 44 -352 -353 c-194 -194 -356 -353
-361 -353 -4 0 -305 297 -669 660 l-660 661 -538 337 c-296 185 -547 342 -556
347 -10 6 -67 41 -127 78 -132 84 -179 110 -174 100 1 -5 198 -320 435 -700
l433 -691 660 -660 c363 -363 660 -664 660 -668 0 -5 -453 -461 -1006 -1014
-554 -553 -1024 -1028 -1045 -1056 -52 -68 -114 -204 -132 -289 -18 -85 -15
-269 6 -337 8 -27 13 -48 11 -48 -8 0 57 -132 90 -184 74 -116 219 -233 346
-280 123 -46 153 -51 275 -51 177 1 323 48 450 145 28 21 504 492 1059 1048
l1010 1010 325 -325 325 -324 -82 -82 c-45 -45 -82 -86 -82 -91 0 -5 285 -293
633 -640 666 -665 670 -669 808 -716 83 -28 220 -34 308 -14 217 51 427 257
484 477 37 140 3 332 -79 456 -36 53 -1273 1301 -1290 1301 -5 0 -46 -37 -91
-82 l-82 -82 -325 325 -324 325 321 321 c177 177 338 338 357 357 l34 36 -43
44 -42 43 601 602 c340 340 600 607 597 614 -3 6 -28 71 -57 142 -28 72 -58
144 -65 160 -7 17 -91 226 -185 465 -95 239 -178 445 -184 456 -10 20 -70 -37
-800 -768z"/>
</g>
</svg>
